<?xml version="1.0" encoding="UTF-8" standalone="no"?>
<!-- Created with Inkscape (http://www.inkscape.org/) -->

<svg
   xmlns:dc="http://purl.org/dc/elements/1.1/"
   xmlns:cc="http://creativecommons.org/ns#"
   xmlns:rdf="http://www.w3.org/1999/02/22-rdf-syntax-ns#"
   xmlns:svg="http://www.w3.org/2000/svg"
   xmlns="http://www.w3.org/2000/svg"
   xmlns:sodipodi="http://sodipodi.sourceforge.net/DTD/sodipodi-0.dtd"
   xmlns:inkscape="http://www.inkscape.org/namespaces/inkscape"
   width="80.778877mm"
   height="48.150059mm"
   viewBox="0 0 80.778876 48.150058"
   id="svg2"
   version="1.1"
   inkscape:version="0.91+devel+osxmenu r12889"
   sodipodi:docname="allymax.svg">
  <sodipodi:namedview
     id="base"
     pagecolor="#ffffff"
     bordercolor="#666666"
     borderopacity="1.0"
     inkscape:pageopacity="0.0"
     inkscape:pageshadow="2"
     inkscape:zoom="1.4"
     inkscape:cx="166.81039"
     inkscape:cy="123.71173"
     inkscape:document-units="mm"
     inkscape:current-layer="g3812"
     showgrid="false"
     inkscape:window-width="1449"
     inkscape:window-height="855"
     inkscape:window-x="0"
     inkscape:window-y="23"
     inkscape:window-maximized="0"
     fit-margin-top="0"
     fit-margin-left="0"
     fit-margin-right="0"
     fit-margin-bottom="0" />
  <defs
     id="defs4">
    <marker
       inkscape:stockid="TriangleOutM"
       orient="auto"
       refY="0"
       refX="0"
       id="TriangleOutM"
       style="overflow:visible"
       inkscape:isstock="true">
      <path
         id="path7670"
         d="m 5.77,0 -8.65,5 0,-10 8.65,5 z"
         style="fill:#7e7e7e;fill-opacity:1;fill-rule:evenodd;stroke:#7e7e7e;stroke-width:1.00000003pt;stroke-opacity:1"
         transform="scale(0.4)"
         inkscape:connector-curvature="0" />
    </marker>
    <marker
       inkscape:stockid="TriangleInM"
       orient="auto"
       refY="0"
       refX="0"
       id="marker10574"
       style="overflow:visible"
       inkscape:isstock="true">
      <path
         id="path10576"
         d="m 5.77,0 -8.65,5 0,-10 8.65,5 z"
         style="fill:#7e7e7e;fill-opacity:1;fill-rule:evenodd;stroke:#7e7e7e;stroke-width:1.00000003pt;stroke-opacity:1"
         transform="scale(-0.4)"
         inkscape:connector-curvature="0" />
    </marker>
    <marker
       inkscape:isstock="true"
       style="overflow:visible"
       id="marker5930"
       refX="0"
       refY="0"
       orient="auto"
       inkscape:stockid="TriangleInM"
       inkscape:collect="always">
      <path
         inkscape:connector-curvature="0"
         transform="scale(-0.4)"
         style="fill:#7e7e7e;fill-opacity:1;fill-rule:evenodd;stroke:#7e7e7e;stroke-width:1.00000003pt;stroke-opacity:1"
         d="m 5.77,0 -8.65,5 0,-10 8.65,5 z"
         id="path5932" />
    </marker>
  </defs>
  <metadata
     id="metadata7">
    <rdf:RDF>
      <cc:Work
         rdf:about="">
        <dc:format>image/svg+xml</dc:format>
        <dc:type
           rdf:resource="http://purl.org/dc/dcmitype/StillImage" />
        <dc:title></dc:title>
      </cc:Work>
    </rdf:RDF>
  </metadata>
  <g
     id="layer1"
     inkscape:groupmode="layer"
     inkscape:label="Layer 1"
     transform="translate(-61.646734,-116.53812)">
    <g
       transform="matrix(0.26458334,0,0,0.26458334,-165.25838,291.59485)"
       id="g3812">
      <g
         id="layer2"
         inkscape:label="outer stroke"
         transform="translate(740.00001,-1466.6479)" />
      <circle
         r="9.9770126"
         style="fill:#263a80;fill-opacity:1;stroke:none;stroke-opacity:1"
         cy="-651.65479"
         cx="1008.7816"
         id="path3350" />
      <path
         sodipodi:nodetypes="cc"
         inkscape:connector-curvature="0"
         id="path3433"
         d="m 1016.9537,-637.96298 59.1887,127.4065"
         style="fill:none;fill-rule:evenodd;stroke:#7e7e7e;stroke-width:4;stroke-linecap:butt;stroke-linejoin:miter;stroke-miterlimit:4;stroke-dasharray:none;stroke-dashoffset:6.40382004;stroke-opacity:1;marker-end:url(#TriangleOutM)" />
      <path
         style="fill:none;fill-rule:evenodd;stroke:#7e7e7e;stroke-width:3.8708179;stroke-linecap:butt;stroke-linejoin:miter;stroke-miterlimit:3.5;stroke-dasharray:none;stroke-dashoffset:35.4294014;stroke-opacity:1;marker-start:url(#marker5930)"
         d="m 995.66612,-630.20545 -62.65606,127.97159"
         id="path4275"
         inkscape:connector-curvature="0" />
      <circle
         r="9.9770126"
         style="fill:#6fcf9b;fill-opacity:1"
         id="circle5248"
         cx="1087.5854"
         cy="-489.62433" />
      <circle
         r="9.9770126"
         style="fill:#5390a9;fill-opacity:1"
         cy="-490.83051"
         cx="927.56537"
         id="circle5250" />
      <path
         sodipodi:nodetypes="cc"
         inkscape:connector-curvature="0"
         id="path5374"
         d="m 949.79171,-494.91998 c 42.41266,-15.6777 82.98139,28.73318 122.80109,5.99854"
         style="fill:none;fill-opacity:1;fill-rule:evenodd;stroke:#7e7e7e;stroke-width:4;stroke-linecap:butt;stroke-linejoin:round;stroke-miterlimit:4;stroke-dasharray:none;stroke-dashoffset:16.12055016;stroke-opacity:1;marker-start:url(#marker10574)" />
      <path
         d="m 740,-1466.6479 c 0.0501,0 0.0247,0.067 0,0.083 -0.067,0.043 -0.14612,-0.019 -0.16667,-0.083 -0.0368,-0.1155 0.0565,-0.2267 0.16667,-0.25 0.16161,-0.034 0.30858,0.094 0.33333,0.25 0.033,0.2072 -0.13244,0.391 -0.33333,0.4166 -0.25281,0.032 -0.47387,-0.1704 -0.5,-0.4166 -0.0317,-0.2983 0.20834,-0.5569 0.5,-0.5834 0.34371,-0.031 0.63985,0.2463 0.66667,0.5834 0.031,0.3891 -0.28423,0.7229 -0.66667,0.75 -0.43455,0.031 -0.8061,-0.3222 -0.83333,-0.75 -0.0306,-0.48 0.36011,-0.8893 0.83333,-0.9167 0.52537,-0.03 0.97249,0.398 1,0.9167"
         sodipodi:t0="0"
         sodipodi:argument="0"
         sodipodi:radius="1"
         sodipodi:revolution="3"
         sodipodi:expansion="1"
         sodipodi:cy="-1466.6479"
         sodipodi:cx="740"
         id="path14117"
         style="fill:none;fill-rule:evenodd;stroke:#000000;stroke-width:1px;stroke-linecap:butt;stroke-linejoin:miter;stroke-opacity:1"
         sodipodi:type="spiral" />
      <g
         inkscape:label="main text"
         id="layer1-4"
         style="display:inline;stroke-width:2.64566922;stroke-miterlimit:4;stroke-dasharray:none"
         transform="translate(740.00001,-1468.6479)">
        <g
           style="font-style:normal;font-weight:normal;font-size:40px;line-height:125%;font-family:sans-serif;letter-spacing:0px;word-spacing:0px;fill:#000000;fill-opacity:1;stroke:#ffffff;stroke-width:5.29133844;stroke-linecap:butt;stroke-linejoin:miter;stroke-miterlimit:4;stroke-dasharray:none;stroke-opacity:1"
           id="text3344">
          <path
             d="m 128.50149,926.69928 q 0,3.42773 2.50488,5.40527 2.50488,1.97754 5.93262,1.97754 4.1748,0 8.08594,-1.93359 6.59179,-3.20801 6.59179,-10.50293 l 0,-6.37207 q -1.45019,0.92285 -3.73535,1.53808 -2.28516,0.61524 -4.48242,0.87891 l -4.79004,0.61524 q -4.30664,0.57128 -6.45996,1.80175 -3.64746,2.06543 -3.64746,6.5918 z m 19.16015,-15.99609 q 2.72461,-0.35157 3.64746,-2.28516 0.52735,-1.05469 0.52735,-3.03223 0,-4.04297 -2.90039,-5.84472 -2.85645,-1.84571 -8.21778,-1.84571 -6.19628,0 -8.78906,3.33985 -1.45019,1.8457 -1.88965,5.49316 l -7.38281,0 q 0.21973,-8.70117 5.625,-12.08496 5.44922,-3.42773 12.61231,-3.42773 8.30566,0 13.49121,3.16406 5.1416,3.16406 5.1416,9.84375 l 0,27.11426 q 0,1.23047 0.4834,1.97754 0.52734,0.74707 2.15332,0.74707 0.52734,0 1.18652,-0.044 0.65918,-0.0879 1.40625,-0.21973 l 0,5.84473 q -1.8457,0.52734 -2.8125,0.65918 -0.9668,0.13184 -2.63672,0.13184 -4.08691,0 -5.93262,-2.90039 -0.96679,-1.53809 -1.3623,-4.35059 -2.41699,3.16406 -6.94336,5.49316 -4.52637,2.32911 -9.97559,2.32911 -6.54785,0 -10.72265,-3.95508 -4.13086,-3.99903 -4.13086,-9.97559 0,-6.54785 4.08691,-10.15137 4.08692,-3.60351 10.72266,-4.43847 l 12.6123,-1.58203 z m -6.54785,-19.6875 0,0 z"
             style="font-style:normal;font-variant:normal;font-weight:normal;font-stretch:normal;font-size:90px;font-family:Cabin;-inkscape-font-specification:Cabin;stroke:#ffffff;stroke-width:5.29133844;stroke-miterlimit:4;stroke-dasharray:none;stroke-opacity:1"
             id="path5384" />
          <path
             d="m 172.75442,874.66803 7.91015,0 0,64.55566 -7.91015,0 0,-64.55566 z"
             style="font-style:normal;font-variant:normal;font-weight:normal;font-stretch:normal;font-size:90px;font-family:Cabin;-inkscape-font-specification:Cabin;stroke:#ffffff;stroke-width:5.29133844;stroke-miterlimit:4;stroke-dasharray:none;stroke-opacity:1"
             id="path5386" />
          <path
             d="m 192.44192,874.66803 7.91015,0 0,64.55566 -7.91015,0 0,-64.55566 z"
             style="font-style:normal;font-variant:normal;font-weight:normal;font-stretch:normal;font-size:90px;font-family:Cabin;-inkscape-font-specification:Cabin;stroke:#ffffff;stroke-width:5.29133844;stroke-miterlimit:4;stroke-dasharray:none;stroke-opacity:1"
             id="path5388" />
          <path
             d="m 241.3091,892.15826 8.74512,0 q -1.66992,4.52637 -7.42676,20.6543 -4.30664,12.12891 -7.20703,19.77539 -6.85547,18.01758 -9.66797,21.97266 -2.8125,3.95508 -9.66796,3.95508 -1.66993,0 -2.59278,-0.13184 -0.8789,-0.13184 -2.19726,-0.4834 l 0,-7.20703 q 2.06543,0.57129 2.98828,0.70313 0.92285,0.13183 1.62597,0.13183 2.19727,0 3.20801,-0.74707 1.05469,-0.70312 1.75781,-1.75781 0.21973,-0.35156 1.58204,-3.60352 1.3623,-3.25195 1.97753,-4.83398 l -17.40234,-48.42774 8.96484,0 12.61231,38.32032 12.70019,-38.32032 z m -12.74414,-1.14257 0,0 z"
             style="font-style:normal;font-variant:normal;font-weight:normal;font-stretch:normal;font-size:90px;font-family:Cabin;-inkscape-font-specification:Cabin;stroke:#ffffff;stroke-width:5.29133844;stroke-miterlimit:4;stroke-dasharray:none;stroke-opacity:1"
             id="path5390" />
          <path
             d="m 257.08547,892.15826 7.82227,0 0,6.67969 q 2.8125,-3.47168 5.09765,-5.05371 3.91114,-2.68066 8.87696,-2.68066 5.625,0 9.05273,2.76855 1.9336,1.58203 3.51563,4.6582 2.63672,-3.77929 6.19629,-5.58105 3.55957,-1.8457 7.99804,-1.8457 9.49219,0 12.91992,6.85547 1.84571,3.6914 1.84571,9.93164 l 0,31.333 -8.21778,0 0,-32.69531 q 0,-4.70215 -2.37304,-6.45996 -2.3291,-1.75781 -5.71289,-1.75781 -4.65821,0 -8.042,3.12012 -3.33984,3.12011 -3.33984,10.41503 l 0,27.37793 -8.04199,0 0,-30.71777 q 0,-4.79004 -1.14258,-6.9873 -1.80176,-3.2959 -6.72363,-3.2959 -4.48242,0 -8.17383,3.47168 -3.64746,3.47168 -3.64746,12.56836 l 0,24.96093 -7.91016,0 0,-47.06543 z"
             style="font-style:normal;font-variant:normal;font-weight:normal;font-stretch:normal;font-size:90px;font-family:Cabin;-inkscape-font-specification:Cabin;stroke:#ffffff;stroke-width:5.29133844;stroke-miterlimit:4;stroke-dasharray:none;stroke-opacity:1"
             id="path5392" />
          <path
             d="m 338.3843,926.69928 q 0,3.42773 2.50488,5.40527 2.50489,1.97754 5.93262,1.97754 4.1748,0 8.08594,-1.93359 6.59179,-3.20801 6.59179,-10.50293 l 0,-6.37207 q -1.45019,0.92285 -3.73535,1.53808 -2.28515,0.61524 -4.48242,0.87891 l -4.79004,0.61524 q -4.30664,0.57128 -6.45996,1.80175 -3.64746,2.06543 -3.64746,6.5918 z m 19.16016,-15.99609 q 2.72461,-0.35157 3.64746,-2.28516 0.52734,-1.05469 0.52734,-3.03223 0,-4.04297 -2.90039,-5.84472 -2.85644,-1.84571 -8.21777,-1.84571 -6.19629,0 -8.78907,3.33985 -1.45019,1.8457 -1.88964,5.49316 l -7.38282,0 q 0.21973,-8.70117 5.625,-12.08496 5.44922,-3.42773 12.61231,-3.42773 8.30566,0 13.49121,3.16406 5.1416,3.16406 5.1416,9.84375 l 0,27.11426 q 0,1.23047 0.4834,1.97754 0.52734,0.74707 2.15332,0.74707 0.52734,0 1.18652,-0.044 0.65918,-0.0879 1.40625,-0.21973 l 0,5.84473 q -1.8457,0.52734 -2.8125,0.65918 -0.96679,0.13184 -2.63672,0.13184 -4.08691,0 -5.93261,-2.90039 -0.9668,-1.53809 -1.36231,-4.35059 -2.41699,3.16406 -6.94336,5.49316 -4.52636,2.32911 -9.97558,2.32911 -6.54785,0 -10.72266,-3.95508 -4.13086,-3.99903 -4.13086,-9.97559 0,-6.54785 4.08692,-10.15137 4.08691,-3.60351 10.72265,-4.43847 l 12.61231,-1.58203 z m -6.54786,-19.6875 0,0 z"
             style="font-style:normal;font-variant:normal;font-weight:normal;font-stretch:normal;font-size:90px;font-family:Cabin;-inkscape-font-specification:Cabin;stroke:#ffffff;stroke-width:5.29133844;stroke-miterlimit:4;stroke-dasharray:none;stroke-opacity:1"
             id="path5394" />
          <path
             d="m 377.93508,892.15826 10.23926,0 10.81055,16.56739 10.94238,-16.56739 9.62402,0.21973 -15.86426,22.71973 16.56739,24.12597 -10.10742,0 -11.68946,-17.66601 -11.33789,17.66601 -10.01953,0 16.56738,-24.12597 -15.73242,-22.93946 z"
             style="font-style:normal;font-variant:normal;font-weight:normal;font-stretch:normal;font-size:90px;font-family:Cabin;-inkscape-font-specification:Cabin;stroke:#ffffff;stroke-width:5.29133844;stroke-miterlimit:4;stroke-dasharray:none;stroke-opacity:1"
             id="path5396" />
        </g>
      </g>
      <g
         transform="translate(742.00001,-1468.6479)"
         style="display:inline;stroke-width:2.64566922;stroke-miterlimit:4;stroke-dasharray:none"
         id="g4955"
         inkscape:label="main text">
        <g
           style="font-style:normal;font-weight:normal;font-size:40px;line-height:125%;font-family:sans-serif;letter-spacing:0px;word-spacing:0px;fill:#000000;fill-opacity:1;stroke:#ffffff;stroke-width:0;stroke-linecap:butt;stroke-linejoin:miter;stroke-miterlimit:4;stroke-dasharray:none;stroke-opacity:1"
           id="text4957">
          <path
             d="m 126.50149,926.69928 q 0,3.42773 2.50488,5.40527 2.50488,1.97754 5.93262,1.97754 4.1748,0 8.08594,-1.93359 6.59179,-3.20801 6.59179,-10.50293 l 0,-6.37207 q -1.45019,0.92285 -3.73535,1.53808 -2.28516,0.61524 -4.48242,0.87891 l -4.79004,0.61524 q -4.30664,0.57128 -6.45996,1.80175 -3.64746,2.06543 -3.64746,6.5918 z m 19.16015,-15.99609 q 2.72461,-0.35157 3.64746,-2.28516 0.52735,-1.05469 0.52735,-3.03223 0,-4.04297 -2.90039,-5.84472 -2.85645,-1.84571 -8.21778,-1.84571 -6.19628,0 -8.78906,3.33985 -1.45019,1.8457 -1.88965,5.49316 l -7.38281,0 q 0.21973,-8.70117 5.625,-12.08496 5.44922,-3.42773 12.61231,-3.42773 8.30566,0 13.49121,3.16406 5.1416,3.16406 5.1416,9.84375 l 0,27.11426 q 0,1.23047 0.4834,1.97754 0.52734,0.74707 2.15332,0.74707 0.52734,0 1.18652,-0.044 0.65918,-0.0879 1.40625,-0.21973 l 0,5.84473 q -1.8457,0.52734 -2.8125,0.65918 -0.9668,0.13184 -2.63672,0.13184 -4.08691,0 -5.93262,-2.90039 -0.96679,-1.53809 -1.3623,-4.35059 -2.41699,3.16406 -6.94336,5.49316 -4.52637,2.32911 -9.97559,2.32911 -6.54785,0 -10.72265,-3.95508 -4.13086,-3.99903 -4.13086,-9.97559 0,-6.54785 4.08691,-10.15137 4.08692,-3.60351 10.72266,-4.43847 l 12.6123,-1.58203 z m -6.54785,-19.6875 0,0 z"
             style="font-style:normal;font-variant:normal;font-weight:normal;font-stretch:normal;font-size:90px;font-family:Cabin;-inkscape-font-specification:Cabin;stroke:#ffffff;stroke-width:0;stroke-miterlimit:4;stroke-dasharray:none;stroke-opacity:1"
             id="path5368" />
          <path
             d="m 170.75442,874.66803 7.91015,0 0,64.55566 -7.91015,0 0,-64.55566 z"
             style="font-style:normal;font-variant:normal;font-weight:normal;font-stretch:normal;font-size:90px;font-family:Cabin;-inkscape-font-specification:Cabin;stroke:#ffffff;stroke-width:0;stroke-miterlimit:4;stroke-dasharray:none;stroke-opacity:1"
             id="path5370" />
          <path
             d="m 190.44192,874.66803 7.91015,0 0,64.55566 -7.91015,0 0,-64.55566 z"
             style="font-style:normal;font-variant:normal;font-weight:normal;font-stretch:normal;font-size:90px;font-family:Cabin;-inkscape-font-specification:Cabin;stroke:#ffffff;stroke-width:0;stroke-miterlimit:4;stroke-dasharray:none;stroke-opacity:1"
             id="path5372" />
          <path
             d="m 239.3091,892.15826 8.74512,0 q -1.66992,4.52637 -7.42676,20.6543 -4.30664,12.12891 -7.20703,19.77539 -6.85547,18.01758 -9.66797,21.97266 -2.8125,3.95508 -9.66796,3.95508 -1.66993,0 -2.59278,-0.13184 -0.8789,-0.13184 -2.19726,-0.4834 l 0,-7.20703 q 2.06543,0.57129 2.98828,0.70313 0.92285,0.13183 1.62597,0.13183 2.19727,0 3.20801,-0.74707 1.05469,-0.70312 1.75781,-1.75781 0.21973,-0.35156 1.58204,-3.60352 1.3623,-3.25195 1.97753,-4.83398 l -17.40234,-48.42774 8.96484,0 12.61231,38.32032 12.70019,-38.32032 z m -12.74414,-1.14257 0,0 z"
             style="font-style:normal;font-variant:normal;font-weight:normal;font-stretch:normal;font-size:90px;font-family:Cabin;-inkscape-font-specification:Cabin;stroke:#ffffff;stroke-width:0;stroke-miterlimit:4;stroke-dasharray:none;stroke-opacity:1"
             id="path5375" />
          <path
             d="m 255.08547,892.15826 7.82227,0 0,6.67969 q 2.8125,-3.47168 5.09765,-5.05371 3.91114,-2.68066 8.87696,-2.68066 5.625,0 9.05273,2.76855 1.9336,1.58203 3.51563,4.6582 2.63672,-3.77929 6.19629,-5.58105 3.55957,-1.8457 7.99804,-1.8457 9.49219,0 12.91992,6.85547 1.84571,3.6914 1.84571,9.93164 l 0,31.333 -8.21778,0 0,-32.69531 q 0,-4.70215 -2.37304,-6.45996 -2.3291,-1.75781 -5.71289,-1.75781 -4.65821,0 -8.042,3.12012 -3.33984,3.12011 -3.33984,10.41503 l 0,27.37793 -8.04199,0 0,-30.71777 q 0,-4.79004 -1.14258,-6.9873 -1.80176,-3.2959 -6.72363,-3.2959 -4.48242,0 -8.17383,3.47168 -3.64746,3.47168 -3.64746,12.56836 l 0,24.96093 -7.91016,0 0,-47.06543 z"
             style="font-style:normal;font-variant:normal;font-weight:normal;font-stretch:normal;font-size:90px;font-family:Cabin;-inkscape-font-specification:Cabin;stroke:#ffffff;stroke-width:0;stroke-miterlimit:4;stroke-dasharray:none;stroke-opacity:1"
             id="path5377" />
          <path
             d="m 336.3843,926.69928 q 0,3.42773 2.50488,5.40527 2.50489,1.97754 5.93262,1.97754 4.1748,0 8.08594,-1.93359 6.59179,-3.20801 6.59179,-10.50293 l 0,-6.37207 q -1.45019,0.92285 -3.73535,1.53808 -2.28515,0.61524 -4.48242,0.87891 l -4.79004,0.61524 q -4.30664,0.57128 -6.45996,1.80175 -3.64746,2.06543 -3.64746,6.5918 z m 19.16016,-15.99609 q 2.72461,-0.35157 3.64746,-2.28516 0.52734,-1.05469 0.52734,-3.03223 0,-4.04297 -2.90039,-5.84472 -2.85644,-1.84571 -8.21777,-1.84571 -6.19629,0 -8.78907,3.33985 -1.45019,1.8457 -1.88964,5.49316 l -7.38282,0 q 0.21973,-8.70117 5.625,-12.08496 5.44922,-3.42773 12.61231,-3.42773 8.30566,0 13.49121,3.16406 5.1416,3.16406 5.1416,9.84375 l 0,27.11426 q 0,1.23047 0.4834,1.97754 0.52734,0.74707 2.15332,0.74707 0.52734,0 1.18652,-0.044 0.65918,-0.0879 1.40625,-0.21973 l 0,5.84473 q -1.8457,0.52734 -2.8125,0.65918 -0.96679,0.13184 -2.63672,0.13184 -4.08691,0 -5.93261,-2.90039 -0.9668,-1.53809 -1.36231,-4.35059 -2.41699,3.16406 -6.94336,5.49316 -4.52636,2.32911 -9.97558,2.32911 -6.54785,0 -10.72266,-3.95508 -4.13086,-3.99903 -4.13086,-9.97559 0,-6.54785 4.08692,-10.15137 4.08691,-3.60351 10.72265,-4.43847 l 12.61231,-1.58203 z m -6.54786,-19.6875 0,0 z"
             style="font-style:normal;font-variant:normal;font-weight:normal;font-stretch:normal;font-size:90px;font-family:Cabin;-inkscape-font-specification:Cabin;stroke:#ffffff;stroke-width:0;stroke-miterlimit:4;stroke-dasharray:none;stroke-opacity:1"
             id="path5379" />
          <path
             d="m 375.93508,892.15826 10.23926,0 10.81055,16.56739 10.94238,-16.56739 9.62402,0.21973 -15.86426,22.71973 16.56739,24.12597 -10.10742,0 -11.68946,-17.66601 -11.33789,17.66601 -10.01953,0 16.56738,-24.12597 -15.73242,-22.93946 z"
             style="font-style:normal;font-variant:normal;font-weight:normal;font-stretch:normal;font-size:90px;font-family:Cabin;-inkscape-font-specification:Cabin;stroke:#ffffff;stroke-width:0;stroke-miterlimit:4;stroke-dasharray:none;stroke-opacity:1"
             id="path5381" />
        </g>
      </g>
    </g>
  </g>
</svg>
